<?xml version="1.0" encoding="utf-8"?>
<!-- Generator: Adobe Illustrator 16.0.0, SVG Export Plug-In . SVG Version: 6.00 Build 0)  -->
<!DOCTYPE svg PUBLIC "-//W3C//DTD SVG 1.1//EN" "http://www.w3.org/Graphics/SVG/1.1/DTD/svg11.dtd">
<svg version="1.1" id="Layer_1" xmlns="http://www.w3.org/2000/svg" xmlns:xlink="http://www.w3.org/1999/xlink" x="0px" y="0px"
	 width="249.234px" height="60.5px" viewBox="0 0 249.234 60.5" enable-background="new 0 0 249.234 60.5" xml:space="preserve">
<g>
	<g>
		<path fill="#B43392" d="M15.963,21.889L6.505,7.602v14.287H4.604V4.073h1.802l9.458,14.237V4.073h1.901v17.815H15.963z"/>
		<path fill="#B43392" d="M23.726,16.209c0,2.702,1.276,4.254,3.628,4.254c1.426,0,2.251-0.426,3.228-1.401l1.226,1.075
			c-1.251,1.252-2.402,1.902-4.503,1.902c-3.253,0-5.38-1.952-5.38-6.306c0-3.979,1.926-6.306,5.054-6.306
			c3.178,0,5.055,2.302,5.055,5.956v0.825H23.726z M23.475,6.826V4.599h1.802v2.228H23.475z M29.856,12.807
			c-0.476-1.127-1.577-1.853-2.877-1.853c-1.301,0-2.402,0.726-2.877,1.853c-0.275,0.675-0.326,1.05-0.375,2.051h6.506
			C30.181,13.856,30.131,13.481,29.856,12.807z M28.78,6.826V4.599h1.802v2.228H28.78z"/>
		<path fill="#B43392" d="M43.747,21.889v-7.582c0-2.177-1.176-3.277-3.027-3.277c-1.852,0-3.053,1.125-3.053,3.277v7.582h-1.801
			V9.577h1.801v1.352c0.875-1.001,2.077-1.501,3.453-1.501c1.326,0,2.402,0.4,3.153,1.151c0.875,0.851,1.276,2.002,1.276,3.429
			v7.881H43.747z"/>
		<path fill="#B43392" d="M63.945,21.889v-1.376c-0.876,1.001-2.102,1.526-3.478,1.526c-1.326,0-2.427-0.4-3.177-1.151
			c-0.876-0.851-1.251-2.026-1.251-3.452V9.577h1.801v7.582c0,2.177,1.151,3.278,3.003,3.278c1.852,0,3.078-1.126,3.078-3.278V9.577
			h1.802v12.312H63.945z"/>
		<path fill="#B43392" d="M77.586,21.889v-1.476c-1.001,1.301-2.152,1.626-3.503,1.626c-1.251,0-2.352-0.425-3.003-1.076
			c-1.251-1.251-1.501-3.303-1.501-5.229s0.25-3.979,1.501-5.229c0.651-0.65,1.751-1.076,3.003-1.076c1.351,0,2.477,0.3,3.478,1.577
			V4.073h1.802v17.815H77.586z M74.484,11.029c-2.678,0-3.103,2.302-3.103,4.704c0,2.401,0.425,4.704,3.103,4.704
			c2.677,0,3.078-2.303,3.078-4.704C77.562,13.331,77.161,11.029,74.484,11.029z"/>
		<path fill="#B43392" d="M91.753,21.889v-7.606c0-2.152-1.151-3.253-3.003-3.253c-1.851,0-3.077,1.125-3.077,3.253v7.606h-1.801
			V4.073h1.801v6.855c0.9-1.025,2.077-1.501,3.453-1.501c2.778,0,4.429,1.777,4.429,4.554v7.907H91.753z"/>
		<path fill="#B43392" d="M99.063,16.209c0,2.702,1.276,4.254,3.628,4.254c1.426,0,2.252-0.426,3.228-1.401l1.226,1.075
			c-1.25,1.252-2.402,1.902-4.503,1.902c-3.253,0-5.38-1.952-5.38-6.306c0-3.979,1.927-6.306,5.054-6.306
			c3.178,0,5.055,2.302,5.055,5.956v0.825H99.063z M98.813,6.826V4.599h1.802v2.228H98.813z M105.194,12.807
			c-0.476-1.127-1.577-1.853-2.878-1.853c-1.301,0-2.402,0.726-2.877,1.853c-0.275,0.675-0.326,1.05-0.375,2.051h6.506
			C105.519,13.856,105.469,13.481,105.194,12.807z M104.118,6.826V4.599h1.802v2.228H104.118z"/>
		<path fill="#B43392" d="M119.085,21.889v-7.606c0-2.152-1.151-3.253-3.003-3.253c-1.851,0-3.077,1.125-3.077,3.253v7.606h-1.802
			V4.073h1.802v6.855c0.9-1.025,2.076-1.501,3.453-1.501c2.778,0,4.429,1.777,4.429,4.554v7.907H119.085z"/>
		<path fill="#B43392" d="M126.396,16.209c0,2.702,1.275,4.254,3.628,4.254c1.426,0,2.252-0.426,3.228-1.401l1.226,1.075
			c-1.25,1.252-2.402,1.902-4.503,1.902c-3.253,0-5.38-1.952-5.38-6.306c0-3.979,1.927-6.306,5.054-6.306
			c3.178,0,5.055,2.302,5.055,5.956v0.825H126.396z M132.526,12.807c-0.476-1.127-1.577-1.853-2.878-1.853s-2.402,0.726-2.877,1.853
			c-0.275,0.675-0.326,1.05-0.375,2.051h6.506C132.851,13.856,132.801,13.481,132.526,12.807z"/>
		<path fill="#B43392" d="M145.867,27.395v-6.957c-1.001,1.276-2.127,1.602-3.479,1.602c-1.25,0-2.352-0.425-3.002-1.076
			c-1.251-1.251-1.501-3.303-1.501-5.229s0.25-3.979,1.501-5.229c0.65-0.65,1.752-1.076,3.002-1.076c1.352,0,2.502,0.3,3.503,1.602
			V9.577h1.776v17.817H145.867z M142.789,11.029c-2.677,0-3.103,2.302-3.103,4.704c0,2.401,0.425,4.704,3.103,4.704
			c2.678,0,3.078-2.303,3.078-4.704C145.867,13.331,145.466,11.029,142.789,11.029z"/>
		<path fill="#B43392" d="M150.85,27.419h-1.301v-1.576h0.976c1.251,0,1.651-0.601,1.651-1.802V9.653h1.801v14.462
			C153.977,25.992,153.002,27.419,150.85,27.419z M152.076,6.075V4.048h2.027v2.027H152.076z"/>
		<path fill="#B43392" d="M159.634,16.209c0,2.702,1.276,4.254,3.628,4.254c1.426,0,2.252-0.426,3.228-1.401l1.226,1.075
			c-1.25,1.252-2.402,1.902-4.503,1.902c-3.253,0-5.38-1.952-5.38-6.306c0-3.979,1.927-6.306,5.054-6.306
			c3.178,0,5.055,2.302,5.055,5.956v0.825H159.634z M165.765,12.807c-0.476-1.127-1.577-1.853-2.878-1.853
			c-1.301,0-2.402,0.726-2.877,1.853c-0.275,0.675-0.326,1.05-0.375,2.051h6.506C166.09,13.856,166.04,13.481,165.765,12.807z"/>
		<path fill="#B43392" d="M179.656,21.889v-7.582c0-2.177-1.176-3.277-3.028-3.277c-1.851,0-3.052,1.125-3.052,3.277v7.582h-1.802
			V9.577h1.802v1.352c0.875-1.001,2.076-1.501,3.453-1.501c1.326,0,2.402,0.4,3.153,1.151c0.875,0.851,1.275,2.002,1.275,3.429
			v7.881H179.656z"/>
		<path fill="#B43392" d="M193.198,16.209c0,2.702,1.276,4.254,3.628,4.254c1.427,0,2.253-0.426,3.228-1.401l1.227,1.075
			c-1.251,1.252-2.401,1.902-4.504,1.902c-3.253,0-5.38-1.952-5.38-6.306c0-3.979,1.927-6.306,5.055-6.306
			c3.178,0,5.055,2.302,5.055,5.956v0.825H193.198z M199.329,12.807c-0.476-1.127-1.577-1.853-2.878-1.853
			c-1.302,0-2.402,0.726-2.878,1.853c-0.274,0.675-0.325,1.05-0.375,2.051h6.506C199.654,13.856,199.604,13.481,199.329,12.807z"/>
		<path fill="#B43392" d="M15.238,50.222c-1.176,1.176-2.852,1.702-4.704,1.702H4.103V34.107h6.431c1.852,0,3.528,0.526,4.704,1.701
			c2.002,2.002,1.802,4.455,1.802,7.132C17.04,45.619,17.24,48.22,15.238,50.222z M12.811,38.312
			c-0.6-0.726-1.401-1.101-2.602-1.101H7.581v11.61h2.627c1.201,0,2.002-0.375,2.602-1.102c0.65-0.801,0.75-2.076,0.75-4.779
			C13.561,40.238,13.461,39.112,12.811,38.312z"/>
		<path fill="#B43392" d="M27.428,42.44c-0.5-0.501-0.925-0.775-1.726-0.775c-1.001,0-2.102,0.751-2.102,2.402v7.856h-3.253V38.888
			h3.178v1.251c0.625-0.752,1.877-1.401,3.278-1.401c1.275,0,2.177,0.325,3.077,1.226L27.428,42.44z"/>
		<path fill="#B43392" d="M30.108,51.924V48.22h3.728v3.704H30.108z"/>
		<path fill="#B43392" d="M42.521,52.074c-2.702,0-4.754-0.576-6.506-2.353l2.252-2.252c1.126,1.126,2.652,1.501,4.304,1.501
			c2.052,0,3.153-0.775,3.153-2.202c0-0.625-0.175-1.149-0.551-1.501c-0.35-0.325-0.75-0.5-1.577-0.625l-2.152-0.301
			c-1.526-0.225-2.652-0.7-3.453-1.476c-0.851-0.851-1.276-2.002-1.276-3.504c0-3.178,2.352-5.405,6.206-5.405
			c2.452,0,4.229,0.601,5.755,2.078l-2.202,2.176c-1.125-1.075-2.477-1.226-3.653-1.226c-1.852,0-2.752,1.026-2.752,2.253
			c0,0.449,0.15,0.925,0.525,1.275c0.351,0.326,0.926,0.601,1.652,0.701l2.102,0.3c1.626,0.225,2.652,0.675,3.403,1.376
			c0.951,0.9,1.376,2.202,1.376,3.778C49.127,50.122,46.249,52.074,42.521,52.074z"/>
		<path fill="#B43392" d="M61.742,50.898c-0.726,0.726-1.902,1.176-3.178,1.176c-1.326,0-2.302-0.351-3.152-1.302v5.931h-3.253
			V38.888h3.153v1.226c0.901-1.001,1.876-1.376,3.252-1.376c1.276,0,2.453,0.45,3.178,1.176c1.301,1.302,1.326,3.528,1.326,5.479
			C63.068,47.345,63.043,49.596,61.742,50.898z M57.613,41.665c-1.952,0-2.202,1.602-2.202,3.728c0,2.127,0.25,3.754,2.202,3.754
			c1.951,0,2.202-1.627,2.202-3.754C59.815,43.267,59.564,41.665,57.613,41.665z"/>
		<path fill="#B43392" d="M68.727,46.42c0,1.676,1.026,2.901,2.853,2.901c1.426,0,2.126-0.4,2.953-1.226l1.977,1.927
			c-1.326,1.325-2.603,2.052-4.954,2.052c-3.078,0-6.03-1.401-6.03-6.682c0-4.254,2.302-6.655,5.68-6.655
			c3.628,0,5.68,2.651,5.68,6.229v1.453H68.727z M73.381,42.79c-0.35-0.774-1.076-1.351-2.176-1.351
			c-1.102,0-1.827,0.576-2.177,1.351c-0.2,0.477-0.275,0.827-0.3,1.401h4.954C73.656,43.617,73.581,43.267,73.381,42.79z"/>
		<path fill="#B43392" d="M85.07,52.074c-2.602,0-5.83-1.401-5.83-6.682c0-5.279,3.228-6.655,5.83-6.655
			c1.802,0,3.153,0.551,4.304,1.751l-2.202,2.202c-0.676-0.726-1.251-1.025-2.102-1.025c-0.775,0-1.376,0.274-1.851,0.851
			c-0.501,0.625-0.726,1.502-0.726,2.877c0,1.376,0.225,2.277,0.726,2.903c0.475,0.575,1.076,0.851,1.851,0.851
			c0.851,0,1.426-0.3,2.102-1.026l2.202,2.177C88.223,51.498,86.872,52.074,85.07,52.074z"/>
		<path fill="#B43392" d="M105.418,51.924h-7.457V34.107h7.156c3.478,0,5.505,1.952,5.505,5.005c0,1.977-1.301,3.253-2.202,3.678
			c1.076,0.501,2.453,1.628,2.453,4.004C110.874,50.122,108.596,51.924,105.418,51.924z M104.843,37.211h-3.403v4.104h3.403
			c1.476,0,2.302-0.826,2.302-2.052S106.319,37.211,104.843,37.211z M105.068,44.442h-3.629v4.379h3.629
			c1.576,0,2.327-1.002,2.327-2.203S106.644,44.442,105.068,44.442z"/>
		<path fill="#B43392" d="M116.733,46.42c0,1.676,1.026,2.901,2.853,2.901c1.426,0,2.126-0.4,2.953-1.226l1.977,1.927
			c-1.326,1.325-2.603,2.052-4.954,2.052c-3.078,0-6.03-1.401-6.03-6.682c0-4.254,2.302-6.655,5.68-6.655
			c3.628,0,5.68,2.651,5.68,6.229v1.453H116.733z M121.387,42.79c-0.35-0.774-1.076-1.351-2.176-1.351
			c-1.102,0-1.827,0.576-2.177,1.351c-0.2,0.477-0.275,0.827-0.3,1.401h4.954C121.662,43.617,121.587,43.267,121.387,42.79z"/>
		<path fill="#B43392" d="M135.378,51.924v-7.957c0-1.727-1.101-2.302-2.127-2.302c-1.025,0-2.102,0.601-2.102,2.302v7.957h-3.253
			V34.107h3.253v5.98c0.876-0.9,1.976-1.351,3.127-1.351c2.853,0,4.354,2.001,4.354,4.754v8.433H135.378z"/>
		<path fill="#B43392" d="M148.818,51.924v-1.127c-0.876,0.877-1.702,1.252-3.203,1.252c-1.476,0-2.552-0.375-3.328-1.15
			c-0.701-0.727-1.076-1.777-1.076-2.929c0-2.076,1.426-3.778,4.454-3.778h3.078v-0.65c0-1.426-0.701-2.052-2.427-2.052
			c-1.25,0-1.826,0.3-2.502,1.076l-2.077-2.027c1.276-1.401,2.528-1.801,4.704-1.801c3.654,0,5.555,1.552,5.555,4.604v8.583H148.818
			z M148.743,46.42h-2.578c-1.175,0-1.826,0.549-1.826,1.476c0,0.9,0.6,1.501,1.876,1.501c0.901,0,1.477-0.075,2.052-0.626
			c0.35-0.324,0.475-0.851,0.475-1.651V46.42z"/>
		<path fill="#B43392" d="M162.584,42.44c-0.5-0.501-0.926-0.775-1.727-0.775c-1.001,0-2.102,0.751-2.102,2.402v7.856h-3.253V38.888
			h3.178v1.251c0.625-0.752,1.877-1.401,3.278-1.401c1.276,0,2.176,0.325,3.078,1.226L162.584,42.44z"/>
		<path fill="#B43392" d="M183.308,51.924l-4.58-8.107l-2.301,2.752v5.355h-3.478V34.107h3.478v7.758l6.28-7.758h4.229l-5.905,7.081
			l6.331,10.735H183.308z"/>
		<path fill="#B43392" d="M196.849,51.924v-1.201c-0.851,0.901-2.051,1.352-3.252,1.352c-1.302,0-2.353-0.426-3.078-1.151
			c-1.051-1.051-1.326-2.276-1.326-3.703v-8.332h3.253v7.881c0,1.777,1.126,2.378,2.152,2.378c1.025,0,2.176-0.601,2.176-2.378
			v-7.881h3.254v13.036H196.849z"/>
		<path fill="#B43392" d="M207.963,52.074c-2.052,0-3.903-0.225-5.555-1.877l2.127-2.127c1.076,1.076,2.478,1.227,3.479,1.227
			c1.125,0,2.301-0.376,2.301-1.352c0-0.65-0.35-1.101-1.375-1.201l-2.053-0.2c-2.352-0.226-3.804-1.251-3.804-3.653
			c0-2.703,2.378-4.153,5.03-4.153c2.026,0,3.729,0.351,4.979,1.526l-2.002,2.026c-0.751-0.675-1.902-0.876-3.027-0.876
			c-1.302,0-1.852,0.602-1.852,1.252c0,0.475,0.2,1.025,1.351,1.125l2.052,0.2c2.577,0.251,3.879,1.628,3.879,3.828
			C213.493,50.697,211.041,52.074,207.963,52.074z"/>
		<path fill="#B43392" d="M222.904,51.924v-1.127c-0.876,0.877-1.701,1.252-3.202,1.252c-1.477,0-2.553-0.375-3.328-1.15
			c-0.7-0.727-1.076-1.777-1.076-2.929c0-2.076,1.426-3.778,4.454-3.778h3.077v-0.65c0-1.426-0.7-2.052-2.427-2.052
			c-1.251,0-1.826,0.3-2.502,1.076l-2.077-2.027c1.276-1.401,2.527-1.801,4.704-1.801c3.653,0,5.556,1.552,5.556,4.604v8.583
			H222.904z M222.829,46.42h-2.576c-1.177,0-1.827,0.549-1.827,1.476c0,0.9,0.601,1.501,1.877,1.501c0.9,0,1.476-0.075,2.051-0.626
			c0.351-0.324,0.476-0.851,0.476-1.651V46.42z"/>
		<path fill="#B43392" d="M236.671,42.44c-0.501-0.501-0.926-0.775-1.726-0.775c-1.003,0-2.103,0.751-2.103,2.402v7.856h-3.254
			V38.888h3.179v1.251c0.626-0.752,1.876-1.401,3.277-1.401c1.276,0,2.178,0.325,3.077,1.226L236.671,42.44z"/>
		<path fill="#B43392" d="M240.928,36.66v-2.651h3.327v2.651H240.928z M240.978,51.924V38.888h3.254v13.036H240.978z"/>
	</g>
</g>
</svg>
