<?xml version="1.0" encoding="utf-8"?>
<!-- Generator: Adobe Illustrator 16.0.0, SVG Export Plug-In . SVG Version: 6.00 Build 0)  -->
<!DOCTYPE svg PUBLIC "-//W3C//DTD SVG 1.1//EN" "http://www.w3.org/Graphics/SVG/1.1/DTD/svg11.dtd">
<svg version="1.1" id="Layer_1" xmlns="http://www.w3.org/2000/svg" xmlns:xlink="http://www.w3.org/1999/xlink" x="0px" y="0px"
	 width="423px" height="136px" viewBox="0 0 423 136" enable-background="new 0 0 423 136" xml:space="preserve">
<g>
	<path fill="#B13694" d="M43.149,126.319c-11.812,1.686-24.062-3.064-32.27-11.609c5.477,4.771,14.64,6.334,21.638,6.658
		c21.941,1.016,40.559-17.432,44.734-37.979c2.334-11.475,5.042-39.238-12.455-41.848c-14.742-2.199-26.515,20.146-22.939,32.48
		c1.577,5.434,5.572,10.84,11.65,10.994c6.477,0.164,10.623-4.734,14.349-9.293c-3.333,4.075-6.031,9.352-11.019,11.682
		c-5.785,2.705-12.795-1.338-15.785-6.58c-5.254-9.201-3.248-20.9,2.541-29.346c4.235-6.178,9.946-11.366,16.854-14.288
		c6.804-2.876,17.126-2.498,21.022,5.181V6.263H9.223v5.957c0.002,5.037,0.002,10.074,0,15.112c-0.002,6.149-0.002,12.298,0,18.446
		c0.002,5.783,0.002,11.564-0.002,17.346C9.22,66.862,9.22,70.601,9.232,74.339c0.002,0.342-0.025,0.703,0.004,1.042
		c1.668-1.06,4.398-1.267,6.32-0.903c5.168,0.981,8.627,6.682,9.922,11.309c0.957,3.412,0.184,7.806-2.597,10.159
		c-3.802,3.222-8.126-0.286-10.888-3.147c4.432,4.593,10.602,5.431,11.932-2.369c1.109-6.484-3.736-14.252-10.639-14.359
		c-0.441-0.006-4.064,0.259-4.064,1.035v25.526c0.685,1.411,1.834,2.923,2.513,3.759c1.481,1.834,3.387,3.311,5.447,4.445
		c7.616,4.195,16.519,2.344,23.532-2.199c-10.695,6.929-23.709,9.951-31.492-2.726v23.827h72.49l-0.09-32.131
		C73.275,111.165,58.562,124.122,43.149,126.319"/>
	<path fill="#B13694" d="M108.653,69.229l9.154-27.228h0.776l8.958,27.228h3.569v0.969h-12.489v-0.969h4.032l-2.637-8.689h-7.213
		l-2.833,8.689h4.071v0.969h-8.649v-0.969H108.653z M119.668,59.339l-3.064-9.93h-0.075l-3.337,9.93H119.668z"/>
	<polygon fill="#B13694" points="136.292,69.454 136.292,49.626 133.399,49.626 133.399,48.88 140.257,48.88 146.757,65.458 
		153.434,48.88 159.995,48.88 159.995,49.626 157.104,49.626 157.104,69.454 159.995,69.454 159.995,70.198 150.543,70.198 
		150.543,69.454 153.881,69.454 153.881,50.132 153.823,50.132 145.653,70.556 145.206,70.556 137.245,50.132 137.185,50.132 
		137.185,69.454 140.406,69.454 140.406,70.198 133.399,70.198 133.399,69.454 	"/>
	<path fill="#B13694" d="M165.778,69.454V49.626h-2.803V48.88h17.055l0.18,6.561h-0.775c-0.119-0.695-0.24-1.285-0.358-1.773
		c-0.12-0.487-0.274-0.939-0.463-1.357c-0.187-0.416-0.382-0.76-0.58-1.029c-0.199-0.267-0.473-0.51-0.82-0.73
		c-0.347-0.219-0.701-0.381-1.06-0.49c-0.355-0.11-0.834-0.199-1.43-0.27c-0.596-0.068-1.203-0.113-1.819-0.135
		c-0.616-0.019-1.382-0.029-2.296-0.029h-1.432v9.242h1.61c1.63,0,2.655-0.308,3.071-0.923c0.419-0.616,0.615-1.809,0.598-3.58
		h0.895v10.14h-0.895c0-0.717-0.013-1.268-0.029-1.656c-0.022-0.388-0.078-0.788-0.166-1.207c-0.088-0.418-0.209-0.719-0.359-0.91
		c-0.147-0.188-0.361-0.367-0.639-0.535c-0.279-0.17-0.611-0.279-1-0.328c-0.387-0.051-0.879-0.074-1.476-0.074h-1.61v9.66h4.504
		c2.165,0,3.735-0.526,4.711-1.582c0.972-1.051,1.629-2.712,1.967-4.979h0.805l-0.269,7.305h-17.919v-0.744H165.778z"/>
	<path fill="#B13694" d="M187.961,69.454V49.626h-2.803V48.88h8.735c2.126,0,3.736,0.354,4.829,1.061
		c1.095,0.707,1.642,2.061,1.642,4.066c0,1.611-0.443,2.77-1.326,3.475c-0.884,0.707-2.144,1.159-3.771,1.357v0.06
		c1.229,0.143,2.169,0.298,2.814,0.478c0.646,0.18,1.233,0.475,1.758,0.881c0.529,0.408,0.891,0.957,1.092,1.654
		c0.197,0.695,0.325,1.639,0.387,2.832c0.078,1.748,0.252,2.971,0.521,3.668c0.269,0.695,0.828,1.043,1.686,1.043h0.743v0.744
		h-2.175c-0.736,0-1.34-0.067-1.803-0.208c-0.469-0.14-0.852-0.317-1.15-0.536c-0.297-0.219-0.527-0.588-0.685-1.103
		c-0.161-0.519-0.274-1.028-0.343-1.536c-0.07-0.508-0.137-1.247-0.193-2.223c-0.121-2.027-0.474-3.393-1.061-4.099
		c-0.584-0.706-1.793-1.059-3.621-1.059h-1.878v10.019h2.681v0.744h-8.883v-0.744H187.961z M191.361,49.626v8.887h2.086
		c2.346,0,3.519-1.492,3.519-4.473c0-1.452-0.312-2.552-0.941-3.295c-0.623-0.748-1.662-1.119-3.115-1.119H191.361z"/>
	<polygon fill="#B13694" points="208.473,69.454 208.473,49.626 205.671,49.626 205.671,48.88 214.676,48.88 214.676,49.626 
		211.874,49.626 211.874,69.454 214.676,69.454 214.676,70.198 205.671,70.198 205.671,69.454 	"/>
	<path fill="#B13694" d="M236.145,50.251v5.607h-0.896c-0.258-2.007-0.836-3.579-1.742-4.712s-2.312-1.7-4.217-1.7
		c-1.135,0-2.121,0.199-2.955,0.599c-0.834,0.397-1.484,0.896-1.953,1.503c-0.465,0.609-0.838,1.373-1.117,2.299
		c-0.277,0.924-0.457,1.822-0.539,2.696c-0.078,0.874-0.117,1.87-0.117,2.981c0,1.014,0.029,1.914,0.09,2.699
		s0.209,1.668,0.449,2.652c0.236,0.985,0.568,1.799,0.996,2.447c0.43,0.643,1.033,1.19,1.82,1.639
		c0.785,0.449,1.725,0.669,2.818,0.669c1.947,0,3.473-0.673,4.574-2.025c1.105-1.352,1.727-3.041,1.863-5.068h0.895v5.903
		c-2.582,1.41-5.059,2.115-7.424,2.115c-3.16,0-5.619-1.014-7.379-3.04c-1.758-2.028-2.638-4.689-2.638-7.991
		c0-3.24,0.942-5.882,2.835-7.93c1.885-2.047,4.42-3.071,7.6-3.071C231.312,48.523,233.66,49.1,236.145,50.251"/>
	<path fill="#B13694" d="M240.914,69.454l7.035-20.931h0.598l6.885,20.931h2.746v0.744h-9.602v-0.744h3.104l-2.029-6.679h-5.547
		l-2.176,6.679h3.131v0.744h-6.648v-0.744H240.914z M249.383,61.849l-2.357-7.631h-0.057l-2.568,7.631H249.383z"/>
	<polygon fill="#B13694" points="262.857,69.454 262.857,49.626 260.117,49.626 260.117,48.88 266.939,48.88 277.496,64.058 
		277.557,64.058 277.557,49.626 274.336,49.626 274.336,48.88 281.193,48.88 281.193,49.626 278.453,49.626 278.453,70.407 
		277.885,70.556 263.814,50.312 263.754,50.312 263.754,69.454 267.031,69.454 267.031,70.198 260.117,70.198 260.117,69.454 	"/>
	<path fill="#B13694" d="M320.555,44.25v7.293h-1.166c-0.336-2.612-1.092-4.655-2.266-6.129c-1.18-1.475-3.012-2.212-5.492-2.212
		c-1.473,0-2.752,0.258-3.838,0.777c-1.088,0.516-1.938,1.17-2.541,1.959c-0.609,0.788-1.094,1.783-1.455,2.984
		c-0.361,1.205-0.594,2.374-0.699,3.511c-0.104,1.138-0.154,2.433-0.154,3.88c0,1.318,0.041,2.489,0.115,3.51
		c0.078,1.021,0.273,2.173,0.584,3.452s0.74,2.341,1.295,3.181c0.559,0.84,1.346,1.551,2.369,2.133
		c1.02,0.584,2.242,0.873,3.666,0.873c2.531,0,4.521-0.88,5.955-2.639c1.436-1.757,2.24-3.955,2.424-6.594h1.164v7.681
		c-3.363,1.837-6.58,2.753-9.662,2.753c-4.109,0-7.309-1.316-9.596-3.955c-2.289-2.637-3.434-6.103-3.434-10.395
		c0-4.215,1.227-7.654,3.686-10.318c2.453-2.662,5.752-3.993,9.889-3.993C314.268,42.002,317.318,42.751,320.555,44.25"/>
	<path fill="#B13694" d="M328.867,69.454V49.626h-2.801V48.88h8.914v0.746h-2.713v19.828h4.951c1.805,0,3.182-0.487,4.129-1.463
		c0.941-0.973,1.643-2.861,2.1-5.666h0.717v7.873h-18.098v-0.744H328.867z"/>
	<polygon fill="#B13694" points="349.949,69.454 349.949,49.626 347.146,49.626 347.146,48.88 356.148,48.88 356.148,49.626 
		353.348,49.626 353.348,69.454 356.148,69.454 356.148,70.198 347.146,70.198 347.146,69.454 	"/>
	<polygon fill="#B13694" points="361.873,69.454 361.873,49.626 359.131,49.626 359.131,48.88 365.959,48.88 376.512,64.058 
		376.574,64.058 376.574,49.626 373.352,49.626 373.352,48.88 380.207,48.88 380.207,49.626 377.469,49.626 377.469,70.407 
		376.9,70.556 362.83,50.312 362.766,50.312 362.766,69.454 366.051,69.454 366.051,70.198 359.131,70.198 359.131,69.454 	"/>
	<polygon fill="#B13694" points="385.994,69.454 385.994,49.626 383.195,49.626 383.195,48.88 392.199,48.88 392.199,49.626 
		389.393,49.626 389.393,69.454 392.199,69.454 392.199,70.198 383.195,70.198 383.195,69.454 	"/>
	<path fill="#B13694" d="M413.666,50.251v5.607h-0.896c-0.26-2.007-0.842-3.579-1.744-4.712c-0.904-1.133-2.309-1.7-4.217-1.7
		c-1.137,0-2.119,0.199-2.955,0.599c-0.832,0.397-1.486,0.896-1.955,1.503c-0.467,0.609-0.836,1.373-1.115,2.299
		c-0.277,0.924-0.457,1.822-0.537,2.696c-0.078,0.874-0.119,1.87-0.119,2.981c0,1.014,0.033,1.914,0.088,2.699
		c0.061,0.785,0.209,1.668,0.449,2.652c0.24,0.985,0.572,1.799,1,2.447c0.428,0.643,1.033,1.19,1.818,1.639
		c0.785,0.449,1.723,0.669,2.816,0.669c1.949,0,3.473-0.673,4.578-2.025c1.104-1.352,1.725-3.041,1.861-5.068h0.895v5.903
		c-2.584,1.41-5.059,2.115-7.422,2.115c-3.16,0-5.621-1.014-7.381-3.04c-1.758-2.028-2.637-4.689-2.637-7.991
		c0-3.24,0.939-5.882,2.832-7.93c1.887-2.047,4.418-3.071,7.6-3.071C408.834,48.523,411.178,49.1,413.666,50.251"/>
	<polygon fill="#B13694" points="107.217,97.24 107.217,85.071 105.495,85.071 105.495,84.612 111.024,84.612 111.024,85.071 
		109.303,85.071 109.303,97.24 111.024,97.24 111.024,97.699 105.495,97.699 105.495,97.24 	"/>
	<polygon fill="#B13694" points="114.157,97.321 114.157,87.29 112.771,87.29 112.771,86.913 116.225,86.913 121.566,94.591 
		121.594,94.591 121.594,87.29 119.967,87.29 119.967,86.913 123.435,86.913 123.435,87.29 122.048,87.29 122.048,97.803 
		121.761,97.88 114.639,87.636 114.61,87.636 114.61,97.321 116.27,97.321 116.27,97.699 112.771,97.699 112.771,97.321 	"/>
	<path fill="#B13694" d="M126.363,97.321V87.304h-1.418v-0.391h8.629l0.092,3.318h-0.393c-0.062-0.354-0.122-0.652-0.183-0.898
		c-0.06-0.246-0.138-0.475-0.233-0.687c-0.096-0.21-0.193-0.384-0.295-0.521c-0.102-0.136-0.238-0.259-0.413-0.369
		c-0.178-0.111-0.356-0.194-0.536-0.248c-0.182-0.057-0.423-0.104-0.724-0.139c-0.304-0.034-0.608-0.055-0.92-0.066
		c-0.312-0.01-0.698-0.014-1.164-0.014h-0.723v4.676h0.813c0.825,0,1.344-0.156,1.554-0.468c0.211-0.312,0.312-0.915,0.302-1.81
		h0.453v5.129h-0.453c0-0.361-0.003-0.641-0.013-0.836c-0.012-0.198-0.039-0.402-0.083-0.613c-0.045-0.211-0.107-0.364-0.181-0.459
		c-0.076-0.097-0.184-0.187-0.325-0.271c-0.142-0.087-0.31-0.142-0.505-0.166c-0.197-0.026-0.445-0.038-0.749-0.038h-0.813v4.842
		h1.417v0.423h-4.556v-0.378H126.363z"/>
	<path fill="#B13694" d="M136.185,97.321V87.29h-1.419v-0.377h8.633l0.088,3.318h-0.392c-0.061-0.354-0.121-0.652-0.184-0.898
		c-0.058-0.246-0.136-0.475-0.232-0.687c-0.095-0.21-0.193-0.384-0.292-0.521c-0.104-0.136-0.241-0.259-0.415-0.369
		c-0.177-0.111-0.356-0.194-0.536-0.248c-0.182-0.057-0.424-0.104-0.726-0.139c-0.302-0.034-0.608-0.055-0.919-0.066
		c-0.312-0.01-0.7-0.014-1.163-0.014h-0.725v4.676h0.815c0.824,0,1.342-0.156,1.553-0.468s0.312-0.915,0.305-1.81h0.451v5.129
		h-0.451c0-0.361-0.008-0.641-0.018-0.836c-0.01-0.198-0.037-0.402-0.081-0.613c-0.048-0.211-0.107-0.364-0.183-0.459
		c-0.076-0.097-0.184-0.187-0.324-0.271c-0.141-0.087-0.31-0.142-0.504-0.166c-0.197-0.026-0.445-0.038-0.748-0.038h-0.815v4.887
		h2.278c1.098,0,1.891-0.267,2.385-0.799c0.491-0.535,0.824-1.373,0.996-2.519h0.405l-0.133,3.695h-9.069v-0.378H136.185z"/>
	<path fill="#B13694" d="M147.411,97.321V87.29h-1.419v-0.377h4.421c1.075,0,1.891,0.178,2.445,0.533
		c0.551,0.357,0.83,1.046,0.83,2.06c0,0.816-0.227,1.401-0.672,1.759c-0.449,0.357-1.086,0.587-1.908,0.686v0.03
		c0.622,0.071,1.098,0.15,1.424,0.241c0.326,0.093,0.623,0.24,0.893,0.447c0.267,0.205,0.446,0.483,0.549,0.835
		c0.1,0.354,0.166,0.831,0.197,1.434c0.038,0.886,0.127,1.505,0.263,1.856c0.137,0.352,0.419,0.527,0.853,0.527h0.376v0.378h-1.101
		c-0.371,0-0.677-0.035-0.91-0.104c-0.238-0.07-0.433-0.162-0.584-0.273c-0.15-0.109-0.266-0.296-0.346-0.557
		c-0.08-0.263-0.139-0.521-0.176-0.777c-0.033-0.258-0.064-0.63-0.096-1.125c-0.061-1.025-0.24-1.717-0.537-2.075
		c-0.297-0.356-0.908-0.535-1.832-0.535h-0.949v5.069h1.356v0.378h-4.496v-0.378H147.411z M149.131,87.29v4.494h1.055
		c1.188,0,1.779-0.754,1.779-2.264c0-0.732-0.158-1.287-0.476-1.665c-0.315-0.378-0.841-0.565-1.576-0.565H149.131z"/>
	<path fill="#B13694" d="M159.75,97.321v-9.943h-1.296c-0.493,0-0.907,0.156-1.237,0.469c-0.333,0.312-0.568,0.681-0.709,1.108
		c-0.143,0.429-0.223,0.897-0.242,1.413h-0.451v-3.455h9.594v3.455h-0.453c-0.029-0.816-0.226-1.518-0.587-2.105
		c-0.362-0.588-0.896-0.885-1.601-0.885h-1.298v9.943h1.659v0.378h-5.037v-0.378H159.75z"/>
	<polygon fill="#B13694" points="168.457,97.321 168.457,87.29 167.038,87.29 167.038,86.913 171.595,86.913 171.595,87.29 
		170.176,87.29 170.176,97.321 171.595,97.321 171.595,97.699 167.038,97.699 167.038,97.321 	"/>
	<path fill="#B13694" d="M174.641,97.321V87.29h-1.416v-0.377h4.51v0.377h-1.373v10.031h2.506c0.912,0,1.611-0.245,2.089-0.739
		c0.477-0.493,0.833-1.448,1.062-2.866h0.364v3.983h-9.157v-0.378H174.641z"/>
	<polygon fill="#B13694" points="185.311,97.321 185.311,87.29 183.89,87.29 183.89,86.913 188.448,86.913 188.448,87.29 
		187.03,87.29 187.03,97.321 188.448,97.321 188.448,97.699 183.89,97.699 183.89,97.321 	"/>
	<path fill="#B13694" d="M194.014,97.321v-9.943h-1.298c-0.493,0-0.905,0.156-1.237,0.469s-0.568,0.681-0.707,1.108
		c-0.141,0.429-0.225,0.897-0.242,1.413h-0.453v-3.455h9.595v3.455h-0.452c-0.027-0.816-0.227-1.518-0.588-2.105
		c-0.363-0.588-0.896-0.885-1.6-0.885h-1.299v9.943h1.662v0.378h-5.039v-0.378H194.014z"/>
	<polygon fill="#B13694" points="204.59,97.321 204.59,92.269 201.77,87.29 200.502,87.29 200.502,86.913 205.317,86.913 
		205.317,87.29 203.747,87.29 206.128,91.696 208.379,87.29 206.84,87.29 206.84,86.913 210.02,86.913 210.02,87.29 208.844,87.29 
		206.311,92.237 206.311,97.321 207.7,97.321 207.7,97.699 203.158,97.699 203.158,97.321 	"/>
	<path fill="#B13694" d="M217.504,97.321l3.559-10.591h0.301l3.488,10.591h1.387v0.378h-4.855v-0.378h1.568l-1.029-3.378h-2.805
		l-1.101,3.378h1.583v0.378h-3.362v-0.378H217.504z M221.789,93.476l-1.191-3.863h-0.029l-1.301,3.863H221.789z"/>
	<polygon fill="#B13694" points="228.607,97.321 228.607,87.29 227.221,87.29 227.221,86.913 230.674,86.913 236.018,94.591 
		236.047,94.591 236.047,87.29 234.416,87.29 234.416,86.913 237.885,86.913 237.885,87.29 236.498,87.29 236.498,97.803 
		236.213,97.88 229.092,87.636 229.061,87.636 229.061,97.321 230.719,97.321 230.719,97.699 227.221,97.699 227.221,97.321 	"/>
	<path fill="#B13694" d="M240.662,97.321V87.29h-1.387v-0.377h6.02c1.541,0,2.701,0.479,3.498,1.439
		c0.795,0.961,1.193,2.279,1.193,3.962c0,0.722-0.082,1.394-0.24,2.013c-0.162,0.617-0.412,1.188-0.756,1.704
		c-0.34,0.521-0.826,0.927-1.447,1.222c-0.623,0.299-1.357,0.446-2.203,0.446h-6.064v-0.378H240.662z M242.381,87.29v10.031h2.553
		c1.064,0,1.857-0.475,2.375-1.425c0.518-0.952,0.777-2.147,0.777-3.582c0-3.35-1.031-5.024-3.096-5.024H242.381z"/>
	<polygon fill="#B13694" points="261.727,97.919 257.771,85.071 256.346,85.071 256.346,84.612 261.836,84.612 261.836,85.071 
		259.969,85.071 262.678,94.313 262.717,94.313 265.35,85.071 263.594,85.071 263.594,84.612 269.486,84.612 269.486,85.071 
		267.621,85.071 270.018,94.313 270.053,94.313 273.109,85.071 271.352,85.071 271.352,84.612 275.234,84.612 275.234,85.071 
		273.697,85.071 269.34,97.919 268.938,97.919 265.734,85.931 265.695,85.931 262.129,97.919 	"/>
	<path fill="#B13694" d="M276.873,94.32c-0.199-0.644-0.297-1.314-0.297-2.007c0-0.693,0.098-1.363,0.297-2.006
		c0.193-0.645,0.484-1.238,0.873-1.782c0.389-0.542,0.908-0.978,1.561-1.305c0.654-0.326,1.398-0.489,2.234-0.489
		c0.834,0,1.58,0.163,2.232,0.489c0.656,0.327,1.176,0.763,1.562,1.305c0.385,0.544,0.676,1.138,0.875,1.782
		c0.195,0.643,0.297,1.312,0.297,2.006c0,0.692-0.102,1.363-0.297,2.007c-0.199,0.643-0.49,1.233-0.875,1.772
		c-0.387,0.537-0.906,0.971-1.562,1.296c-0.652,0.329-1.398,0.491-2.232,0.491c-0.836,0-1.58-0.162-2.234-0.491
		c-0.652-0.325-1.172-0.759-1.561-1.296C277.357,95.554,277.066,94.963,276.873,94.32 M284.512,92.313
		c0-0.592-0.016-1.113-0.053-1.555c-0.033-0.441-0.111-0.9-0.24-1.373c-0.125-0.471-0.289-0.858-0.498-1.154
		s-0.496-0.543-0.867-0.739c-0.373-0.196-0.811-0.296-1.312-0.296s-0.941,0.1-1.311,0.296c-0.375,0.196-0.664,0.443-0.869,0.739
		c-0.207,0.296-0.373,0.684-0.498,1.154c-0.127,0.473-0.205,0.932-0.24,1.373c-0.039,0.441-0.053,0.963-0.053,1.555
		c0,0.755,0.033,1.398,0.104,1.931s0.201,1.06,0.393,1.576c0.193,0.519,0.496,0.913,0.912,1.185s0.941,0.407,1.562,0.407
		s1.146-0.136,1.562-0.407s0.719-0.666,0.914-1.185c0.191-0.517,0.318-1.044,0.393-1.576
		C284.48,93.712,284.512,93.068,284.512,92.313"/>
	<polygon fill="#B13694" points="289.871,97.321 289.871,87.29 288.406,87.29 288.406,86.913 291.875,86.913 295.162,95.3 
		298.543,86.913 301.863,86.913 301.863,87.29 300.4,87.29 300.4,97.321 301.863,97.321 301.863,97.699 297.08,97.699 
		297.08,97.321 298.771,97.321 298.771,87.544 298.74,87.544 294.605,97.88 294.381,97.88 290.354,87.544 290.322,87.544 
		290.322,97.321 291.953,97.321 291.953,97.699 288.406,97.699 288.406,97.321 	"/>
	<path fill="#B13694" d="M304.199,97.321l3.564-10.591h0.301l3.484,10.591h1.391v0.378h-4.857v-0.378h1.566l-1.025-3.378h-2.807
		l-1.1,3.378h1.584v0.378h-3.365v-0.378H304.199z M308.488,93.476l-1.193-3.863h-0.029l-1.299,3.863H308.488z"/>
	<polygon fill="#B13694" points="315.307,97.321 315.307,87.29 313.918,87.29 313.918,86.913 317.375,86.913 322.713,94.591 
		322.744,94.591 322.744,87.29 321.113,87.29 321.113,86.913 324.584,86.913 324.584,87.29 323.199,87.29 323.199,97.803 
		322.91,97.88 315.789,87.636 315.764,87.636 315.764,97.321 317.418,97.321 317.418,97.699 313.918,97.699 313.918,97.321 	"/>
	<path fill="#B13694" d="M326.518,91.62l-0.166-0.303c1.105-0.774,1.658-1.575,1.658-2.398c0-0.092-0.01-0.187-0.031-0.289
		c-0.168,0.12-0.363,0.183-0.588,0.183c-0.281,0-0.527-0.101-0.729-0.3c-0.211-0.203-0.311-0.443-0.311-0.725
		c0-0.282,0.1-0.529,0.311-0.74c0.201-0.211,0.447-0.317,0.729-0.317c0.445,0,0.779,0.188,1.004,0.565
		c0.225,0.378,0.342,0.799,0.342,1.26c0,0.604-0.223,1.188-0.676,1.758C327.617,90.881,327.1,91.317,326.518,91.62"/>
	<path fill="#B13694" d="M330.924,97.201l-0.107-3.048h0.422c0.049,0.896,0.369,1.662,0.957,2.301
		c0.59,0.639,1.311,0.957,2.17,0.957c0.682,0,1.266-0.178,1.756-0.535c0.484-0.354,0.729-0.877,0.729-1.56
		c0-0.534-0.201-0.976-0.602-1.329c-0.402-0.352-0.893-0.635-1.463-0.846c-0.574-0.209-1.148-0.434-1.723-0.669
		c-0.57-0.239-1.059-0.586-1.465-1.042c-0.398-0.458-0.602-1.029-0.602-1.714c0-0.915,0.338-1.64,1.004-2.181
		c0.672-0.537,1.471-0.806,2.406-0.806c0.926,0,1.857,0.216,2.791,0.647l0.092,2.371h-0.408c-0.361-1.699-1.24-2.553-2.641-2.553
		c-0.572,0-1.062,0.154-1.463,0.463c-0.402,0.306-0.605,0.74-0.605,1.304c0,0.423,0.145,0.781,0.43,1.079
		c0.291,0.297,0.645,0.523,1.066,0.68c0.424,0.156,0.883,0.339,1.387,0.549c0.504,0.214,0.967,0.436,1.389,0.665
		c0.422,0.231,0.777,0.576,1.064,1.034c0.285,0.457,0.43,1.002,0.43,1.636c0,0.987-0.377,1.778-1.137,2.378
		c-0.76,0.599-1.641,0.896-2.637,0.896C333.002,97.88,331.918,97.653,330.924,97.201"/>
	<polygon fill="#B13694" points="354.877,90.743 354.877,85.071 353.229,85.071 353.229,84.612 358.684,84.612 358.684,85.071 
		356.963,85.071 356.963,97.24 358.684,97.24 358.684,97.699 353.229,97.699 353.229,97.24 354.877,97.24 354.877,91.2 
		349.203,91.2 349.203,97.24 350.85,97.24 350.85,97.699 345.395,97.699 345.395,97.24 347.115,97.24 347.115,85.071 
		345.395,85.071 345.395,84.612 350.85,84.612 350.85,85.071 349.203,85.071 349.203,90.743 	"/>
	<path fill="#B13694" d="M361.822,97.321V87.29h-1.418v-0.377h8.627l0.09,3.318h-0.391c-0.057-0.354-0.121-0.652-0.18-0.898
		c-0.061-0.246-0.137-0.475-0.234-0.687c-0.096-0.21-0.191-0.384-0.293-0.521c-0.102-0.136-0.242-0.259-0.416-0.369
		c-0.178-0.111-0.354-0.194-0.537-0.248c-0.18-0.057-0.422-0.104-0.723-0.139c-0.299-0.034-0.607-0.055-0.918-0.066
		c-0.316-0.01-0.701-0.014-1.166-0.014h-0.721v4.676h0.812c0.826,0,1.346-0.156,1.555-0.468c0.211-0.312,0.312-0.915,0.301-1.81
		h0.453v5.129h-0.453c0-0.361-0.006-0.641-0.016-0.836c-0.012-0.198-0.035-0.402-0.08-0.613c-0.051-0.211-0.105-0.364-0.184-0.459
		c-0.072-0.097-0.182-0.187-0.32-0.271c-0.143-0.087-0.311-0.142-0.508-0.166c-0.197-0.026-0.445-0.038-0.748-0.038h-0.812v4.887
		h2.275c1.102,0,1.893-0.267,2.383-0.799c0.496-0.535,0.828-1.373,0.996-2.519h0.408l-0.137,3.695h-9.064v-0.378H361.822z"/>
	<path fill="#B13694" d="M372.455,97.321l3.562-10.591h0.305l3.482,10.591h1.389v0.378h-4.857v-0.378h1.568l-1.027-3.378h-2.805
		l-1.1,3.378h1.582v0.378h-3.363v-0.378H372.455z M376.742,93.476l-1.191-3.863h-0.027l-1.299,3.863H376.742z"/>
	<path fill="#B13694" d="M383.717,97.321V87.29h-1.424v-0.377h4.512v0.377h-1.371v10.031h2.504c0.918,0,1.611-0.245,2.09-0.739
		c0.477-0.493,0.834-1.448,1.066-2.866h0.361v3.983h-9.162v-0.378H383.717z"/>
	<path fill="#B13694" d="M395.512,97.321v-9.943h-1.297c-0.492,0-0.91,0.156-1.24,0.469c-0.332,0.312-0.564,0.681-0.709,1.108
		c-0.137,0.429-0.221,0.897-0.242,1.413h-0.451v-3.455h9.596v3.455h-0.453c-0.031-0.816-0.221-1.518-0.588-2.105
		c-0.361-0.588-0.893-0.885-1.6-0.885h-1.297v9.943h1.66v0.378h-5.037v-0.378H395.512z"/>
	<polygon fill="#B13694" points="410.492,91.966 410.492,87.29 409.133,87.29 409.133,86.913 413.629,86.913 413.629,87.29 
		412.215,87.29 412.215,97.321 413.629,97.321 413.629,97.699 409.133,97.699 409.133,97.321 410.492,97.321 410.492,92.341 
		405.816,92.341 405.816,97.321 407.174,97.321 407.174,97.699 402.678,97.699 402.678,97.321 404.096,97.321 404.096,87.29 
		402.678,87.29 402.678,86.913 407.174,86.913 407.174,87.29 405.816,87.29 405.816,91.966 	"/>
	<rect x="105.338" y="76.21" fill="#B13694" width="308.441" height="1.849"/>
</g>
</svg>
